<svg width="676" height="632" viewBox="0 0 676 632" fill="none" xmlns="http://www.w3.org/2000/svg">
<g clip-path="url(#clip0_213_2)">
<path d="M629.592 445.458L659.903 450.195C670.163 437.772 677.236 423.033 680.507 407.256C658.343 425.399 624.638 415.758 597.763 425.663C589.404 428.816 581.862 433.81 575.696 440.275C569.53 446.739 564.898 454.508 562.142 463.006L547.329 478.944C560.738 484.252 575.139 486.591 589.539 485.798C603.938 485.005 617.995 481.1 630.74 474.351C637.853 470.495 644.452 465.758 650.38 460.252C639.775 453.574 629.592 445.458 629.592 445.458Z" fill="#F2F2F2"/>
<path d="M618.831 396.98L648.074 387.702C651.717 372.007 651.474 355.661 647.365 340.081C635.619 366.204 601.152 372.607 581.515 393.458C575.44 400.008 570.917 407.842 568.281 416.378C565.645 424.914 564.964 433.933 566.287 442.768L560.137 463.639C574.506 462.41 588.438 458.081 600.973 450.949C613.508 443.818 624.348 434.054 632.745 422.329C637.391 415.705 641.185 408.523 644.036 400.951C631.565 399.703 618.831 396.98 618.831 396.98Z" fill="#F2F2F2"/>
<path d="M278.998 475.866C397.739 475.866 493.998 379.607 493.998 260.866C493.998 142.125 397.739 45.866 278.998 45.866C160.257 45.866 63.998 142.125 63.998 260.866C63.998 379.607 160.257 475.866 278.998 475.866Z" fill="#E6E6E6"/>
<path d="M463.998 260.866C464.02 289.733 457.276 318.203 444.309 343.993C431.342 369.784 412.512 392.177 389.328 409.376C387.778 410.536 386.198 411.666 384.608 412.766C353.606 434.316 316.754 445.866 278.998 445.866C241.242 445.866 204.39 434.316 173.388 412.766C171.798 411.666 170.218 410.536 168.668 409.376C145.501 392.161 126.682 369.766 113.716 343.979C100.751 318.192 93.998 289.729 93.998 260.866C93.998 232.003 100.751 203.54 113.716 177.753C126.682 151.966 145.501 129.57 168.668 112.356C170.218 111.196 171.798 110.066 173.388 108.966C204.39 87.4161 241.242 75.866 278.998 75.866C316.754 75.866 353.606 87.4161 384.608 108.966C386.198 110.066 387.778 111.196 389.328 112.356C412.512 129.555 431.342 151.948 444.309 177.739C457.276 203.529 464.02 231.999 463.998 260.866Z" fill="white"/>
<path d="M278.998 429.866C372.334 429.866 447.998 354.202 447.998 260.866C447.998 167.53 372.334 91.866 278.998 91.866C185.662 91.866 109.998 167.53 109.998 260.866C109.998 354.202 185.662 429.866 278.998 429.866Z" fill="#EA3D62"/>
<path opacity="0.2" d="M279.438 92.3384C276.876 92.3384 274.33 92.4054 271.796 92.5182C314.51 96.2716 354.2 116.121 382.825 148.046C411.45 179.97 426.87 221.582 425.96 264.45C425.05 307.319 407.878 348.239 377.925 378.92C347.971 409.601 307.474 427.749 264.64 429.686C269.517 430.109 274.451 430.338 279.438 430.338C324.26 430.338 367.246 412.533 398.939 380.839C430.633 349.146 448.438 306.16 448.438 261.338C448.438 216.517 430.633 173.531 398.939 141.837C367.246 110.144 324.26 92.3384 279.438 92.3384Z" fill="black"/>
<path d="M279.498 79.866C278.04 79.8685 276.643 80.4488 275.612 81.4797C274.581 82.5106 274.001 83.9081 273.998 85.366V109.366C273.998 110.825 274.577 112.224 275.609 113.255C276.64 114.287 278.039 114.866 279.498 114.866C280.957 114.866 282.356 114.287 283.387 113.255C284.419 112.224 284.998 110.825 284.998 109.366V85.366C284.995 83.9081 284.415 82.5106 283.384 81.4797C282.353 80.4488 280.956 79.8685 279.498 79.866Z" fill="white"/>
<path d="M389.328 112.356C387.778 111.196 386.198 110.066 384.608 108.966C383.654 108.904 382.7 109.092 381.841 109.511C380.981 109.93 380.246 110.566 379.708 111.356L366.198 131.186C365.377 132.391 365.069 133.874 365.341 135.306C365.613 136.739 366.443 138.005 367.648 138.826C368.853 139.647 370.335 139.955 371.768 139.683C373.201 139.411 374.467 138.581 375.288 137.376L388.798 117.546C389.312 116.794 389.63 115.925 389.722 115.018C389.815 114.112 389.679 113.197 389.328 112.356Z" fill="white"/>
<path d="M450.708 202.776C450.436 202.107 450.035 201.499 449.528 200.985C449.021 200.472 448.418 200.063 447.753 199.782C447.088 199.502 446.375 199.355 445.653 199.351C444.931 199.346 444.216 199.484 443.548 199.756L421.308 208.786C419.958 209.336 418.881 210.399 418.315 211.742C417.749 213.086 417.739 214.599 418.287 215.949C418.836 217.3 419.898 218.377 421.241 218.945C422.584 219.512 424.097 219.523 425.448 218.976L447.688 209.946C449.037 209.393 450.112 208.328 450.678 206.985C451.244 205.641 451.255 204.128 450.708 202.776Z" fill="white"/>
<path d="M191.798 131.186L178.288 111.356C177.749 110.566 177.014 109.93 176.155 109.511C175.296 109.092 174.342 108.904 173.388 108.966C171.798 110.066 170.218 111.196 168.668 112.356C168.316 113.197 168.181 114.112 168.273 115.018C168.366 115.925 168.684 116.794 169.198 117.546L182.708 137.376C183.529 138.581 184.795 139.411 186.227 139.683C187.66 139.955 189.142 139.647 190.348 138.826C191.553 138.005 192.383 136.739 192.655 135.306C192.927 133.874 192.619 132.391 191.798 131.186Z" fill="white"/>
<path d="M136.687 208.786L114.447 199.756C113.096 199.207 111.582 199.218 110.239 199.785C108.895 200.352 107.832 201.43 107.283 202.781C106.734 204.132 106.745 205.646 107.312 206.99C107.879 208.333 108.956 209.397 110.307 209.946L132.547 218.976C133.898 219.523 135.411 219.512 136.754 218.944C138.097 218.377 139.159 217.299 139.708 215.949C140.256 214.598 140.246 213.085 139.68 211.742C139.114 210.399 138.037 209.336 136.687 208.786Z" fill="white"/>
<path d="M279.498 406.866C278.04 406.869 276.643 407.449 275.612 408.48C274.581 409.511 274.001 410.908 273.998 412.366V436.366C273.998 437.825 274.577 439.224 275.609 440.255C276.64 441.287 278.039 441.866 279.498 441.866C280.957 441.866 282.356 441.287 283.387 440.255C284.419 439.224 284.998 437.825 284.998 436.366V412.366C284.995 410.908 284.415 409.511 283.384 408.48C282.353 407.449 280.956 406.869 279.498 406.866Z" fill="white"/>
<path d="M388.798 404.186L375.288 384.356C374.881 383.759 374.361 383.248 373.758 382.852C373.154 382.456 372.478 382.183 371.768 382.049C371.059 381.914 370.33 381.92 369.623 382.067C368.916 382.215 368.245 382.499 367.648 382.906C367.051 383.312 366.54 383.832 366.144 384.436C365.748 385.04 365.475 385.716 365.341 386.426C365.206 387.135 365.212 387.864 365.359 388.571C365.507 389.278 365.791 389.949 366.198 390.546L379.708 410.376C380.246 411.166 380.981 411.802 381.841 412.221C382.7 412.64 383.654 412.828 384.608 412.766C386.198 411.666 387.778 410.536 389.328 409.376C389.679 408.535 389.815 407.62 389.722 406.714C389.63 405.807 389.312 404.938 388.798 404.186Z" fill="white"/>
<path d="M447.687 311.786L425.447 302.756C424.096 302.207 422.582 302.218 421.239 302.785C419.895 303.352 418.832 304.43 418.283 305.781C417.734 307.132 417.745 308.646 418.312 309.99C418.879 311.333 419.956 312.397 421.307 312.946L443.547 321.976C444.898 322.523 446.411 322.512 447.754 321.944C449.097 321.377 450.159 320.299 450.708 318.949C451.256 317.598 451.246 316.085 450.68 314.742C450.114 313.399 449.037 312.336 447.687 311.786Z" fill="white"/>
<path d="M190.348 382.906C189.142 382.085 187.66 381.777 186.228 382.049C184.795 382.321 183.529 383.151 182.708 384.356L169.198 404.186C168.684 404.938 168.366 405.807 168.273 406.714C168.181 407.62 168.316 408.535 168.668 409.376C170.218 410.536 171.798 411.666 173.388 412.766C174.342 412.828 175.296 412.64 176.155 412.221C177.014 411.802 177.749 411.166 178.288 410.376L191.798 390.546C192.204 389.949 192.489 389.278 192.636 388.571C192.783 387.864 192.79 387.135 192.655 386.426C192.521 385.716 192.247 385.04 191.852 384.436C191.456 383.832 190.945 383.312 190.348 382.906Z" fill="white"/>
<path d="M139.708 305.776C139.436 305.107 139.035 304.499 138.528 303.985C138.021 303.472 137.418 303.063 136.753 302.782C136.088 302.502 135.375 302.355 134.653 302.351C133.931 302.346 133.216 302.484 132.548 302.756L110.308 311.786C108.958 312.336 107.881 313.399 107.315 314.742C106.749 316.086 106.739 317.599 107.287 318.949C107.836 320.3 108.898 321.377 110.241 321.945C111.584 322.512 113.097 322.523 114.448 321.976L136.688 312.946C138.037 312.393 139.112 311.328 139.678 309.985C140.244 308.641 140.255 307.128 139.708 305.776Z" fill="white"/>
<path d="M286.634 258.137C287.141 261.143 286.436 264.228 284.672 266.715C282.908 269.202 280.23 270.888 277.225 271.402L179.627 288.004C178.138 288.257 176.614 288.214 175.141 287.879C173.669 287.543 172.277 286.92 171.045 286.047C169.813 285.173 168.766 284.065 167.962 282.787C167.158 281.508 166.614 280.084 166.361 278.595C166.108 277.106 166.15 275.582 166.486 274.11C166.822 272.637 167.444 271.245 168.318 270.013C169.192 268.782 170.299 267.734 171.578 266.93C172.857 266.127 174.281 265.583 175.77 265.329L273.368 248.728C276.374 248.22 279.459 248.926 281.946 250.689C284.433 252.453 286.119 255.132 286.634 258.137Z" fill="#3F3D56"/>
<path d="M409.639 322.706C408.812 324.514 407.301 325.92 405.438 326.615C403.575 327.31 401.512 327.238 399.702 326.415L265.063 264.963C263.255 264.136 261.85 262.625 261.156 260.763C260.461 258.9 260.535 256.838 261.361 255.029C262.186 253.221 263.696 251.814 265.558 251.118C267.42 250.422 269.482 250.494 271.291 251.318L405.931 312.769C407.739 313.596 409.145 315.107 409.84 316.97C410.535 318.833 410.463 320.896 409.639 322.706Z" fill="#3F3D56"/>
<path d="M278.998 273.866C286.178 273.866 291.998 268.046 291.998 260.866C291.998 253.686 286.178 247.866 278.998 247.866C271.818 247.866 265.998 253.686 265.998 260.866C265.998 268.046 271.818 273.866 278.998 273.866Z" fill="#CCCCCC"/>
<path d="M189.454 35.4448C169.499 66.8173 139.053 87.6375 101.505 101.315C100.763 101.871 99.9184 102.275 99.0203 102.504C98.1221 102.734 97.1876 102.784 96.27 102.653C95.3524 102.521 94.4697 102.21 93.6724 101.737C92.875 101.264 92.1786 100.639 91.6229 99.8968C71.227 72.6643 75.8324 33.7437 102.751 12.9349C109.259 7.91283 116.699 4.23348 124.641 2.11051C132.582 -0.0124712 140.866 -0.536798 149.012 0.56798C157.158 1.67276 165.003 4.38462 172.092 8.54614C179.182 12.7077 185.373 18.2359 190.309 24.81L190.873 25.5632C191.428 26.3052 191.833 27.1494 192.062 28.0475C192.291 28.9456 192.342 29.8802 192.21 30.7978C192.078 31.7154 191.767 32.598 191.294 33.3954C190.821 34.1927 190.196 34.8891 189.454 35.4448Z" fill="#E6E6E6"/>
<path d="M367.687 24.81C372.622 18.2359 378.814 12.7077 385.903 8.54613C392.992 4.38461 400.837 1.67276 408.983 0.567984C417.129 -0.536794 425.413 -0.0124822 433.355 2.1105C441.296 4.23347 448.737 7.91282 455.245 12.9349C482.163 33.7437 486.768 72.6643 466.373 99.8968C465.817 100.639 465.121 101.264 464.323 101.737C463.526 102.21 462.643 102.521 461.726 102.653C460.808 102.784 459.873 102.734 458.975 102.504C458.077 102.275 457.233 101.871 456.491 101.315C421.634 87.9698 393.049 64.8757 368.541 35.4448C367.043 34.3225 366.052 32.6509 365.786 30.7977C365.52 28.9446 366.001 27.0617 367.123 25.5632L367.687 24.81Z" fill="#E6E6E6"/>
<path d="M358.941 447.134C357.67 447.848 356.733 449.037 356.337 450.44C355.941 451.843 356.117 453.346 356.827 454.62L388.569 511.342C389.281 512.615 390.47 513.552 391.874 513.949C393.277 514.345 394.781 514.167 396.053 513.455C397.326 512.743 398.264 511.554 398.66 510.151C399.057 508.747 398.88 507.243 398.168 505.971L366.426 449.248C365.712 447.977 364.523 447.041 363.12 446.645C361.717 446.248 360.214 446.424 358.941 447.134Z" fill="#E6E6E6"/>
<path d="M191.569 449.248L159.827 505.97C159.115 507.243 158.938 508.747 159.334 510.15C159.731 511.554 160.668 512.743 161.941 513.455C163.214 514.167 164.717 514.345 166.121 513.948C167.525 513.552 168.713 512.615 169.426 511.342L201.168 454.62C201.521 453.989 201.746 453.296 201.831 452.578C201.916 451.861 201.858 451.134 201.662 450.439C201.466 449.743 201.135 449.094 200.687 448.526C200.24 447.959 199.685 447.486 199.055 447.133C198.424 446.78 197.731 446.555 197.013 446.47C196.296 446.386 195.569 446.443 194.874 446.64C194.178 446.836 193.529 447.168 192.962 447.615C192.395 448.063 191.921 448.617 191.569 449.248Z" fill="#E6E6E6"/>
<path d="M394.998 525.866C404.387 525.866 411.998 518.255 411.998 508.866C411.998 499.477 404.387 491.866 394.998 491.866C385.609 491.866 377.998 499.477 377.998 508.866C377.998 518.255 385.609 525.866 394.998 525.866Z" fill="#E6E6E6"/>
<path d="M406.998 90.866C416.387 90.866 423.998 83.2548 423.998 73.866C423.998 64.4771 416.387 56.866 406.998 56.866C397.609 56.866 389.998 64.4771 389.998 73.866C389.998 83.2548 397.609 90.866 406.998 90.866Z" fill="#E6E6E6"/>
<path d="M277.998 50.866C287.387 50.866 294.998 43.2548 294.998 33.866C294.998 24.4771 287.387 16.866 277.998 16.866C268.609 16.866 260.998 24.4771 260.998 33.866C260.998 43.2548 268.609 50.866 277.998 50.866Z" fill="#E6E6E6"/>
<path d="M154.998 88.866C164.387 88.866 171.998 81.2548 171.998 71.866C171.998 62.4771 164.387 54.866 154.998 54.866C145.609 54.866 137.998 62.4771 137.998 71.866C137.998 81.2548 145.609 88.866 154.998 88.866Z" fill="#E6E6E6"/>
<path d="M165.998 525.866C175.387 525.866 182.998 518.255 182.998 508.866C182.998 499.477 175.387 491.866 165.998 491.866C156.609 491.866 148.998 499.477 148.998 508.866C148.998 518.255 156.609 525.866 165.998 525.866Z" fill="#E6E6E6"/>
<path d="M386.663 318.707C387.333 319.756 388.225 320.645 389.277 321.313C390.328 321.98 391.512 322.409 392.747 322.568C393.982 322.728 395.236 322.616 396.423 322.238C397.609 321.861 398.698 321.227 399.614 320.383L426.289 334.677L424.858 319.016L399.746 307.843C398.227 306.4 396.23 305.564 394.135 305.494C392.04 305.424 389.992 306.125 388.38 307.464C386.767 308.803 385.702 310.687 385.385 312.759C385.069 314.831 385.524 316.947 386.663 318.707Z" fill="#FFB7B7"/>
<path d="M406.1 324.172L416.553 309.743L466.913 333.549L529.58 321.791C532.678 321.21 535.865 321.318 538.916 322.107C541.968 322.896 544.808 324.348 547.235 326.358C549.662 328.368 551.617 330.888 552.961 333.739C554.305 336.59 555.004 339.702 555.01 342.853C555.015 348.546 552.761 354.008 548.743 358.04C544.725 362.073 539.271 364.347 533.579 364.364L461.763 364.497L406.1 324.172Z" fill="#3F3D56"/>
<path d="M389.999 573.399L379.422 568.341L393.951 524.133L409.56 531.599L389.999 573.399Z" fill="#FFB7B7"/>
<path d="M460.905 566.272C460.136 566.754 459.367 567.228 458.59 567.702C457.044 568.649 455.483 569.582 453.921 570.498C453.136 570.957 452.344 571.415 451.559 571.866V571.889L451.513 571.897L451.497 571.905L450.301 572.2L448.584 567.663L447.791 565.573L446.673 562.613L444.622 557.198L433.823 528.687L450.612 524.546L451.241 527.118H451.249L451.559 528.392L457.425 552.18L458.621 557.043L458.66 557.191L459.382 560.096L460.004 562.613L460.695 565.426L460.905 566.272Z" fill="#FFB7B7"/>
<path d="M561.054 466.147C559.989 467.856 558.902 469.558 557.806 471.244C555.771 474.382 553.681 477.474 551.537 480.519C551.537 480.527 551.529 480.527 551.521 480.535C550.27 481.694 548.889 482.703 547.404 483.541C547.342 483.588 547.272 483.619 547.21 483.658C546.116 484.262 544.953 484.729 543.745 485.049C543.31 485.157 542.867 485.266 542.432 485.375C540.863 485.748 539.309 486.066 537.763 486.346C535.013 486.835 532.294 487.185 529.59 487.402C529.373 487.426 529.155 487.441 528.938 487.457C517.821 488.273 506.999 486.96 495.703 484.808C490.125 483.751 484.431 482.485 478.534 481.172C476.608 480.737 474.673 480.31 472.715 479.882C472.568 479.851 472.412 479.812 472.257 479.781C469.46 479.168 466.617 478.562 463.704 477.963C460.037 477.21 456.253 476.48 452.323 475.788L452.602 481.327C452.835 485.588 453.721 489.788 455.228 493.781C456.906 498.69 458.234 502.575 455.43 510.662L454.078 514.578C454.779 516.522 455.019 518.602 454.781 520.655C454.542 522.708 453.831 524.678 452.703 526.409L452.431 526.821L463.704 555.34L464.434 557.189H458.662L451.561 557.197H439.527L422.164 522.362L421.333 520.699V520.614L423.128 453.671C423.151 453.08 423.198 452.482 423.275 451.892C423.592 449.208 424.44 446.613 425.769 444.26C427.099 441.908 428.884 439.843 431.021 438.188C433.068 436.588 435.412 435.411 437.918 434.725C440.424 434.04 443.042 433.859 445.618 434.194L451.561 434.964L463.704 436.533L472.257 437.644L472.428 437.667L497.653 440.93L499.463 433.55L499.797 433.425L510.417 429.533L547.148 416.07L547.241 416.039L549.657 415.153L549.944 415.619C550.03 415.759 550.115 415.899 550.193 416.039C552.581 420.32 554.525 424.834 555.996 429.51C558.469 437.149 560.505 444.922 562.095 452.793C562.165 453.135 562.227 453.445 562.281 453.725L562.304 453.811C562.328 453.943 562.343 454.028 562.351 454.051C563.198 457.578 562.607 461.882 561.054 466.147Z" fill="#2F2E41"/>
<path d="M562.604 441.477C562.487 440.979 562.34 440.474 562.184 439.985C560.951 436.278 559.514 432.642 557.88 429.093C556.047 425.054 553.848 420.726 551.23 416.042C549.964 413.773 548.602 411.414 547.144 408.965C546.414 407.737 545.655 406.486 544.868 405.212C544.837 405.154 544.803 405.097 544.767 405.041L544.542 404.668L508.199 409.532L494.666 411.342L493.858 418.085L493.664 419.755C493.656 419.755 493.656 419.755 493.664 419.763L493.12 424.316V424.323L492.398 430.336L492.336 430.329L472.253 427.726L451.558 425.046L440.44 423.609C437.864 423.273 435.247 423.453 432.741 424.139C430.235 424.824 427.89 426.001 425.843 427.602C423.707 429.258 421.922 431.322 420.593 433.675C419.263 436.028 418.415 438.622 418.098 441.306C418.028 441.85 417.981 442.409 417.958 442.961L407.47 467.813C401.194 482.676 397.197 498.4 395.615 514.456L387.924 539.044L389.019 539.145L405.318 540.66L409.622 541.064L419.1 527.228C420.18 525.651 421.205 524.027 422.161 522.365C423.734 519.65 425.132 516.837 426.348 513.943L446.85 465.156C448.435 465.428 450.004 465.687 451.557 465.933C458.744 467.098 465.642 468.048 472.253 468.784C493.749 471.184 512.363 471.371 528.934 469.335C533.588 468.768 538.086 468.023 542.428 467.098C544.021 466.764 545.593 466.404 547.144 466.018C547.509 465.933 547.866 465.847 548.224 465.754C551.435 464.926 554.386 463.306 556.809 461.042C559.231 458.778 561.048 455.943 562.091 452.796C563.337 449.149 563.515 445.222 562.604 441.477Z" fill="#2F2E41"/>
<path d="M393.378 566.18L381.935 560.696L380.14 559.833L377.273 566.872L357.261 571.277C356.271 571.494 355.377 572.021 354.709 572.783C354.041 573.544 353.634 574.499 353.547 575.508C353.46 576.517 353.698 577.528 354.227 578.392C354.755 579.256 355.546 579.929 356.484 580.312L376.038 588.29L382.245 582.704L380.723 590.201L388.087 593.208L396.159 567.517L393.378 566.18Z" fill="#2F2E41"/>
<path d="M463.703 555.34L464.434 557.189H463.703V555.34Z" fill="#2F2E41"/>
<path d="M459.718 557.584L447.728 561.738L445.846 562.388L448.761 569.407L437.64 586.618C437.09 587.468 436.826 588.472 436.887 589.484C436.947 590.495 437.33 591.46 437.978 592.238C438.627 593.016 439.507 593.567 440.491 593.809C441.474 594.051 442.51 593.973 443.446 593.585L462.954 585.495L463.434 577.159L467.627 583.557L474.976 580.512L462.635 556.577L459.718 557.584Z" fill="#2F2E41"/>
<path d="M559.614 452.732C558.902 452.731 558.201 452.557 557.571 452.225L494.296 419.163L493.565 416.17L492.188 406.698L492.206 406.609L498.224 378.866C498.114 378.628 497.883 378.237 497.623 377.796C494.936 373.244 486.761 359.39 502.364 340.315L529.76 308.376L553.272 307.364L553.54 307.702C559.827 315.593 564.067 324.915 565.883 334.84C567.699 344.765 567.035 354.984 563.95 364.591L561.502 408.807L564.128 417.737C565.663 422.985 565.409 428.594 563.406 433.681L564.008 448.14C564.032 448.733 563.936 449.324 563.726 449.879C563.515 450.434 563.196 450.94 562.786 451.369C562.376 451.798 561.883 452.139 561.338 452.373C560.793 452.607 560.207 452.73 559.614 452.732Z" fill="#3F3D56"/>
<path d="M504.728 489.198C505.8 488.565 506.72 487.704 507.423 486.677C508.126 485.649 508.596 484.48 508.799 483.252C509.001 482.024 508.932 480.766 508.596 479.567C508.26 478.368 507.666 477.258 506.854 476.314L522.067 450.151L506.365 451.036L494.326 475.745C492.83 477.213 491.925 479.18 491.783 481.271C491.64 483.362 492.269 485.433 493.551 487.091C494.833 488.75 496.679 489.88 498.739 490.268C500.799 490.656 502.93 490.276 504.728 489.198Z" fill="#FFB7B7"/>
<path d="M510.866 469.963L496.809 459.014L522.352 409.513L512.781 346.475C512.308 343.359 512.527 340.177 513.422 337.155C514.317 334.133 515.866 331.345 517.96 328.989C520.053 326.634 522.64 324.768 525.535 323.524C528.431 322.28 531.565 321.689 534.715 321.793C540.405 321.986 545.785 324.429 549.675 328.585C553.566 332.74 555.649 338.269 555.467 343.959L553.103 415.737L510.866 469.963Z" fill="#3F3D56"/>
<path d="M514.678 295.104V271.837C514.672 263.569 517.952 255.637 523.795 249.786C529.638 243.936 537.566 240.646 545.835 240.64C554.103 240.635 562.036 243.915 567.886 249.758C573.737 255.601 577.026 263.529 577.032 271.797V271.837C582.527 283.288 579.089 288.732 577.032 295.104C577.03 296.214 576.588 297.278 575.804 298.062C575.019 298.847 573.955 299.289 572.846 299.29H518.866C517.756 299.289 516.692 298.848 515.907 298.063C515.121 297.278 514.68 296.214 514.678 295.104Z" fill="#2F2E41"/>
<path d="M535.632 297.778C548.521 297.778 558.969 287.33 558.969 274.441C558.969 261.552 548.521 251.104 535.632 251.104C522.743 251.104 512.295 261.552 512.295 274.441C512.295 287.33 522.743 297.778 535.632 297.778Z" fill="#FFB7B7"/>
<path d="M560.055 284.559C559.844 284.526 559.633 284.481 559.421 284.448C555.781 283.802 552.14 283.168 548.511 282.511L548.177 274.284L543.78 281.653C533.75 284.982 524.366 283.101 515.538 278.948C512.626 277.566 509.8 276.008 507.077 274.284C507.819 269.734 509.568 265.408 512.197 261.621C514.826 257.834 518.269 254.683 522.273 252.398C522.607 252.209 522.929 252.042 523.263 251.875L523.268 251.874L523.271 251.872L523.274 251.868L523.275 251.864C523.842 251.596 524.421 251.34 525 251.107C529.532 249.336 534.474 248.887 539.25 249.813C544.027 250.739 548.443 253.002 551.985 256.339C559.109 263.141 562.315 274.373 560.055 284.559Z" fill="#2F2E41"/>
</g>
<defs>
<clipPath id="clip0_213_2">
<rect width="675.67" height="631.947" fill="white"/>
</clipPath>
</defs>
</svg>
