<svg width="533" height="702" viewBox="0 0 533 702" fill="none" xmlns="http://www.w3.org/2000/svg">
<path d="M452.923 580.033C439.594 619.075 422.451 658.032 400.49 695.112C400.003 695.947 399.51 696.765 399.013 697.597L344.644 680.397C344.957 679.61 345.3 678.729 345.668 677.768C367.597 621.057 499.9 275.531 493.962 207.406C494.601 212.982 515.298 397.526 452.923 580.033Z" fill="#E6E6E6"/>
<path d="M410.979 698.43C410.24 699.185 409.482 699.935 408.719 700.668L367.933 687.765C368.484 687.097 369.126 686.311 369.865 685.423C381.944 670.671 417.856 626.504 452.923 580.033C490.609 530.093 527.326 477.5 532.471 455.889C531.438 460.803 499.255 610.4 410.979 698.43Z" fill="#E6E6E6"/>
<path d="M431.367 123.114C431.351 123.114 431.337 123.119 431.322 123.119V35.6899C431.322 26.2244 427.562 17.1465 420.868 10.4533C414.175 3.76018 405.097 0 395.632 0H121.912C112.446 0 103.368 3.76018 96.6751 10.4533C89.9819 17.1465 86.2217 26.2244 86.2217 35.6899V80.5107C85.466 80.5269 84.7467 80.8382 84.2178 81.3781C83.6888 81.918 83.3922 82.6436 83.3916 83.3994V105.6C83.3922 106.355 83.6887 107.081 84.2177 107.621C84.7467 108.161 85.466 108.472 86.2217 108.488V131.745H86.0766C85.6964 131.745 85.32 131.819 84.9688 131.965C84.6175 132.11 84.2983 132.324 84.0295 132.593C83.7607 132.861 83.5475 133.18 83.402 133.532C83.2565 133.883 83.1816 134.259 83.1816 134.64V177.569C83.1816 177.95 83.2565 178.326 83.402 178.677C83.5475 179.028 83.7607 179.348 84.0295 179.616C84.2983 179.885 84.6175 180.099 84.9688 180.244C85.32 180.389 85.6964 180.464 86.0766 180.464H86.2217V197.515H86.1766C85.7964 197.515 85.42 197.589 85.0687 197.735C84.7175 197.88 84.3983 198.094 84.1295 198.363C83.8607 198.631 83.6474 198.95 83.502 199.302C83.3565 199.653 83.2816 200.029 83.2816 200.41V243.759C83.2816 244.139 83.3565 244.516 83.502 244.867C83.6474 245.218 83.8607 245.538 84.1295 245.806C84.3983 246.075 84.7175 246.288 85.0687 246.434C85.42 246.579 85.7964 246.654 86.1766 246.654H86.2217V665.68C86.2217 675.146 89.9819 684.224 96.6751 690.917C103.368 697.61 112.446 701.37 121.912 701.37H395.632C405.097 701.37 414.175 697.61 420.868 690.917C427.562 684.224 431.322 675.146 431.322 665.68V208.13C431.337 208.13 431.351 208.134 431.367 208.134C432.044 208.134 432.714 208.001 433.339 207.742C433.965 207.483 434.533 207.103 435.012 206.625C435.491 206.146 435.87 205.578 436.129 204.952C436.388 204.327 436.522 203.656 436.522 202.979V128.27C436.522 126.902 435.979 125.591 435.012 124.624C434.045 123.657 432.734 123.114 431.367 123.114Z" fill="#3F3D56"/>
<path d="M410.012 45.68V655.68C410.009 662.948 407.12 669.917 401.98 675.055C396.84 680.194 389.87 683.08 382.602 683.08H134.942C127.674 683.08 120.704 680.194 115.563 675.055C110.423 669.917 107.534 662.948 107.532 655.68V45.68C107.532 38.4104 110.42 31.4386 115.56 26.2982C120.7 21.1578 127.672 18.27 134.942 18.27H172.002V23.08C172.004 29.0651 174.383 34.8044 178.615 39.0365C182.847 43.2686 188.587 45.6474 194.572 45.65H320.572C326.549 45.6368 332.277 43.253 336.499 39.0218C340.721 34.7905 343.092 29.0573 343.092 23.08V18.32H382.602C389.863 18.32 396.827 21.201 401.966 26.3305C407.105 31.4601 409.998 38.4191 410.012 45.68Z" fill="white"/>
<path d="M163 98.9922H136C135.337 98.9922 134.701 98.7288 134.232 98.2599C133.763 97.7911 133.5 97.1552 133.5 96.4922C133.5 95.8291 133.763 95.1933 134.232 94.7244C134.701 94.2556 135.337 93.9922 136 93.9922H163C163.663 93.9922 164.299 94.2556 164.768 94.7244C165.237 95.1933 165.5 95.8291 165.5 96.4922C165.5 97.1552 165.237 97.7911 164.768 98.2599C164.299 98.7288 163.663 98.9922 163 98.9922Z" fill="#3F3D56"/>
<path d="M163 105.992H136C135.337 105.992 134.701 105.729 134.232 105.26C133.763 104.791 133.5 104.155 133.5 103.492C133.5 102.829 133.763 102.193 134.232 101.724C134.701 101.256 135.337 100.992 136 100.992H163C163.663 100.992 164.299 101.256 164.768 101.724C165.237 102.193 165.5 102.829 165.5 103.492C165.5 104.155 165.237 104.791 164.768 105.26C164.299 105.729 163.663 105.992 163 105.992Z" fill="#3F3D56"/>
<path d="M163 112.992H136C135.337 112.992 134.701 112.729 134.232 112.26C133.763 111.791 133.5 111.155 133.5 110.492C133.5 109.829 133.763 109.193 134.232 108.724C134.701 108.256 135.337 107.992 136 107.992H163C163.663 107.992 164.299 108.256 164.768 108.724C165.237 109.193 165.5 109.829 165.5 110.492C165.5 111.155 165.237 111.791 164.768 112.26C164.299 112.729 163.663 112.992 163 112.992Z" fill="#3F3D56"/>
<path d="M372.292 106.042H371.381L371.032 105.752C372.181 104.382 372.811 102.651 372.812 100.862C372.804 99.3906 372.36 97.9545 371.535 96.7355C370.711 95.5164 369.544 94.569 368.182 94.0133C366.819 93.4575 365.323 93.3182 363.881 93.613C362.439 93.9079 361.117 94.6236 360.083 95.6696C359.048 96.7157 358.346 98.0452 358.067 99.4899C357.788 100.935 357.943 102.43 358.513 103.786C359.084 105.143 360.044 106.299 361.271 107.11C362.499 107.921 363.94 108.35 365.412 108.342C367.195 108.329 368.919 107.701 370.292 106.562L370.631 106.852V107.772L376.372 113.522L378.092 111.802L372.292 106.042ZM365.412 106.042C364.387 106.046 363.384 105.746 362.53 105.18C361.676 104.614 361.009 103.808 360.613 102.863C360.218 101.918 360.111 100.877 360.307 99.8712C360.503 98.8656 360.993 97.9407 361.715 97.2135C362.436 96.4862 363.357 95.9893 364.361 95.7856C365.365 95.5818 366.407 95.6804 367.355 96.0688C368.303 96.4572 369.115 97.118 369.687 97.9676C370.26 98.8172 370.567 99.8176 370.571 100.842L370.571 100.862C370.575 101.538 370.446 102.209 370.191 102.835C369.936 103.461 369.56 104.031 369.084 104.512C368.609 104.993 368.043 105.376 367.42 105.638C366.797 105.901 366.128 106.038 365.452 106.042C365.438 106.042 365.425 106.042 365.412 106.042Z" fill="#3F3D56"/>
<path d="M218.005 190.992H169.5C166.583 190.992 163.785 189.833 161.722 187.77C159.659 185.707 158.5 182.91 158.5 179.992C158.5 177.075 159.659 174.277 161.722 172.214C163.785 170.151 166.583 168.992 169.5 168.992H218.005C220.923 168.992 223.721 170.151 225.784 172.214C227.846 174.277 229.005 177.075 229.005 179.992C229.005 182.91 227.846 185.707 225.784 187.77C223.721 189.833 220.923 190.992 218.005 190.992Z" fill="#EA3D62"/>
<path d="M366.5 214.992H164.5C162.909 214.992 161.383 214.36 160.257 213.235C159.132 212.11 158.5 210.583 158.5 208.992C158.5 207.401 159.132 205.875 160.257 204.75C161.383 203.624 162.909 202.992 164.5 202.992H366.5C368.091 202.992 369.617 203.624 370.743 204.75C371.868 205.875 372.5 207.401 372.5 208.992C372.5 210.583 371.868 212.11 370.743 213.235C369.617 214.36 368.091 214.992 366.5 214.992Z" fill="#E6E6E6"/>
<path d="M238.7 238.992H164.5C162.909 238.992 161.383 238.36 160.257 237.235C159.132 236.11 158.5 234.583 158.5 232.992C158.5 231.401 159.132 229.875 160.257 228.75C161.383 227.624 162.909 226.992 164.5 226.992H238.7C240.291 226.992 241.818 227.624 242.943 228.75C244.068 229.875 244.7 231.401 244.7 232.992C244.7 234.583 244.068 236.11 242.943 237.235C241.818 238.36 240.291 238.992 238.7 238.992Z" fill="#E6E6E6"/>
<path d="M218.005 456.992H169.5C166.583 456.992 163.785 455.833 161.722 453.77C159.659 451.707 158.5 448.91 158.5 445.992C158.5 443.075 159.659 440.277 161.722 438.214C163.785 436.151 166.583 434.992 169.5 434.992H218.005C220.923 434.992 223.721 436.151 225.784 438.214C227.846 440.277 229.005 443.075 229.005 445.992C229.005 448.91 227.846 451.707 225.784 453.77C223.721 455.833 220.923 456.992 218.005 456.992Z" fill="#EA3D62"/>
<path d="M366.5 480.992H164.5C162.909 480.992 161.383 480.36 160.257 479.235C159.132 478.11 158.5 476.583 158.5 474.992C158.5 473.401 159.132 471.875 160.257 470.75C161.383 469.624 162.909 468.992 164.5 468.992H366.5C368.091 468.992 369.617 469.624 370.743 470.75C371.868 471.875 372.5 473.401 372.5 474.992C372.5 476.583 371.868 478.11 370.743 479.235C369.617 480.36 368.091 480.992 366.5 480.992Z" fill="#E6E6E6"/>
<path d="M238.7 504.992H164.5C162.909 504.992 161.383 504.36 160.257 503.235C159.132 502.11 158.5 500.583 158.5 498.992C158.5 497.401 159.132 495.875 160.257 494.75C161.383 493.624 162.909 492.992 164.5 492.992H238.7C240.291 492.992 241.818 493.624 242.943 494.75C244.068 495.875 244.7 497.401 244.7 498.992C244.7 500.583 244.068 502.11 242.943 503.235C241.818 504.36 240.291 504.992 238.7 504.992Z" fill="#E6E6E6"/>
<path d="M218.005 579.992H169.5C166.583 579.992 163.785 578.833 161.722 576.77C159.659 574.707 158.5 571.91 158.5 568.992C158.5 566.075 159.659 563.277 161.722 561.214C163.785 559.151 166.583 557.992 169.5 557.992H218.005C220.923 557.992 223.721 559.151 225.784 561.214C227.846 563.277 229.005 566.075 229.005 568.992C229.005 571.91 227.846 574.707 225.784 576.77C223.721 578.833 220.923 579.992 218.005 579.992Z" fill="#EA3D62"/>
<path d="M366.5 603.992H164.5C162.909 603.992 161.383 603.36 160.257 602.235C159.132 601.11 158.5 599.583 158.5 597.992C158.5 596.401 159.132 594.875 160.257 593.75C161.383 592.624 162.909 591.992 164.5 591.992H366.5C368.091 591.992 369.617 592.624 370.743 593.75C371.868 594.875 372.5 596.401 372.5 597.992C372.5 599.583 371.868 601.11 370.743 602.235C369.617 603.36 368.091 603.992 366.5 603.992Z" fill="#E6E6E6"/>
<path d="M238.7 627.992H164.5C162.909 627.992 161.383 627.36 160.257 626.235C159.132 625.11 158.5 623.583 158.5 621.992C158.5 620.401 159.132 618.875 160.257 617.75C161.383 616.624 162.909 615.992 164.5 615.992H238.7C240.291 615.992 241.818 616.624 242.943 617.75C244.068 618.875 244.7 620.401 244.7 621.992C244.7 623.583 244.068 625.11 242.943 626.235C241.818 627.36 240.291 627.992 238.7 627.992Z" fill="#E6E6E6"/>
<path d="M395 394.492H9C6.74646 394.49 4.58596 393.593 2.99246 392C1.39897 390.406 0.502596 388.246 0.5 385.992V280.992C0.502517 278.739 1.39886 276.578 2.99237 274.985C4.58588 273.391 6.74643 272.495 9 272.492H395C397.254 272.495 399.414 273.391 401.008 274.985C402.601 276.578 403.497 278.739 403.5 280.992V385.992C403.497 388.246 402.601 390.406 401.007 392C399.414 393.593 397.254 394.49 395 394.492Z" fill="#EA3D62"/>
<path d="M146.277 320.492H79.223C74.9645 320.492 71.5 315.558 71.5 309.492C71.5 303.427 74.9645 298.492 79.2231 298.492H146.277C150.535 298.492 154 303.427 154 309.492C154 315.558 150.535 320.492 146.277 320.492Z" fill="white"/>
<path d="M326.5 344.492H77.5C75.9087 344.492 74.3826 343.86 73.2574 342.735C72.1321 341.61 71.5 340.083 71.5 338.492C71.5 336.901 72.1321 335.375 73.2574 334.25C74.3826 333.124 75.9087 332.492 77.5 332.492H326.5C328.091 332.492 329.617 333.124 330.743 334.25C331.868 335.375 332.5 336.901 332.5 338.492C332.5 340.083 331.868 341.61 330.743 342.735C329.617 343.86 328.091 344.492 326.5 344.492Z" fill="#E6E6E6"/>
<path d="M198.7 368.492H77.5C75.9087 368.492 74.3826 367.86 73.2574 366.735C72.1321 365.61 71.5 364.083 71.5 362.492C71.5 360.901 72.1321 359.375 73.2574 358.25C74.3826 357.124 75.9087 356.492 77.5 356.492H198.7C200.291 356.492 201.818 357.124 202.943 358.25C204.068 359.375 204.7 360.901 204.7 362.492C204.7 364.083 204.068 365.61 202.943 366.735C201.818 367.86 200.291 368.492 198.7 368.492Z" fill="#E6E6E6"/>
</svg>
